<svg id="Layer_1" data-name="Layer 1" xmlns="http://www.w3.org/2000/svg" viewBox="0 0 100 100"><defs><style>.cls-1{fill:#fff;}</style></defs><path class="cls-1" d="M42.92,56.63l-4.38-12.2a2.21,2.21,0,0,1-.14-.59,1.07,1.07,0,0,1,1.09-1,1.14,1.14,0,0,1,1.09.89l3.63,10.51,3.65-10.53a1.1,1.1,0,0,1,1.06-.86H49a1.14,1.14,0,0,1,1.12.86l3.62,10.53,3.69-10.56a1.06,1.06,0,0,1,2.09.17,1.89,1.89,0,0,1-.14.58L55,56.63a1.26,1.26,0,0,1-1.17,1h-.08a1.21,1.21,0,0,1-1.18-1L49,46.26,45.35,56.63a1.21,1.21,0,0,1-1.17,1h-.06a1.28,1.28,0,0,1-1.2-1"/><path class="cls-1" d="M74.84,43.9a1.09,1.09,0,0,1,1.06-1.09A1.07,1.07,0,0,1,77,43.9v2.47a5.89,5.89,0,0,1,5-3.54A1,1,0,0,1,83,43.92a1.06,1.06,0,0,1-1,1.09c-2.8.34-5.09,2.43-5.09,6.6v4.9a1.06,1.06,0,0,1-1.06,1.09,1.08,1.08,0,0,1-1.09-1.09V43.89Z"/><path class="cls-1" d="M90,57.76a7.08,7.08,0,0,1-7.06-7.45v-.05c0-4.12,2.87-7.44,6.79-7.44,4.18,0,6.57,3.45,6.57,7.24a1,1,0,0,1-1,1H85.05a5,5,0,0,0,5,4.84,5.75,5.75,0,0,0,4.08-1.66.89.89,0,0,1,.6-.25.93.93,0,0,1,.93.92.91.91,0,0,1-.33.69A7.16,7.16,0,0,1,90,57.76m4.19-8.27c-.22-2.61-1.7-4.87-4.52-4.87-2.46,0-4.32,2.07-4.6,4.87Z"/><path class="cls-1" d="M59.65,53.29v0c0-3,2.51-4.66,6.16-4.66a15,15,0,0,1,4.43.62v-.51c0-2.58-1.59-3.92-4.29-3.92a7.36,7.36,0,0,0-3.36.65,1,1,0,0,1-.38.09,1,1,0,0,1-1-.92.89.89,0,0,1,.58-.9,9.66,9.66,0,0,1,4.33-.82,6.32,6.32,0,0,1,4.65,1.59,5.68,5.68,0,0,1,1.48,4.21v7.95a1,1,0,0,1-1,1.06,1,1,0,0,1-1-1V55.3A6.33,6.33,0,0,1,65,57.78c-2.68,0-5.38-1.53-5.38-4.48m10.61-1.12V50.79A14.87,14.87,0,0,0,66,50.17c-2.7,0-4.21,1.18-4.21,3v.06c0,1.81,1.67,2.87,3.62,2.87,2.65,0,4.82-1.62,4.82-3.9"/><path class="cls-1" d="M3.93,43.76a2,2,0,0,0-2.72-1,2,2,0,0,0-1,2.73l4.57,9.94c.72,1.56,1.48,2.37,2.9,2.37s2.18-.89,2.9-2.37c0,0,4-8.68,4-8.78a.58.58,0,0,1,.57-.37.63.63,0,0,1,.63.65V55.4a2.15,2.15,0,1,0,4.28,0V48.45a2.14,2.14,0,0,1,2.27-2.21,2.09,2.09,0,0,1,2.18,2.21V55.4a2.13,2.13,0,0,0,2.12,2.38,2.15,2.15,0,0,0,2.15-2.38V48.45a2.14,2.14,0,0,1,2.27-2.21,2.09,2.09,0,0,1,2.18,2.21V55.4a2.15,2.15,0,1,0,4.27,0V47.49a5,5,0,0,0-5.15-5,6.6,6.6,0,0,0-4.56,2,5.07,5.07,0,0,0-4.41-1.94,7.28,7.28,0,0,0-4.32,1.94,5.14,5.14,0,0,0-3.84-1.94A4.73,4.73,0,0,0,10.6,45.7L7.68,52.59Z"/><path class="cls-1" d="M96.44,44.63h0a1.78,1.78,0,1,1,3.56,0h0a1.79,1.79,0,0,1-1.78,1.79,1.76,1.76,0,0,1-1.78-1.78m3.22,0h0a1.43,1.43,0,0,0-1.44-1.45,1.45,1.45,0,0,0-1.45,1.46h0a1.45,1.45,0,1,0,2.89,0"/><path class="cls-1" d="M97.57,43.9a.18.18,0,0,1,.19-.19h.59a.7.7,0,0,1,.51.17.55.55,0,0,1,.15.4h0a.55.55,0,0,1-.34.53l.26.32a.22.22,0,0,1,.06.14.18.18,0,0,1-.18.18.26.26,0,0,1-.19-.1l-.37-.47H98v.38a.19.19,0,1,1-.38,0V43.9Zm.76.64c.19,0,.29-.09.29-.24h0c0-.17-.11-.25-.29-.25H98v.49Z"/></svg>